<?xml version="1.0" standalone="no"?>
<!DOCTYPE svg PUBLIC "-//W3C//DTD SVG 20010904//EN"
 "http://www.w3.org/TR/2001/REC-SVG-20010904/DTD/svg10.dtd">
<svg version="1.0" xmlns="http://www.w3.org/2000/svg"
 width="512.000000pt" height="512.000000pt" viewBox="0 0 512.000000 512.000000"
 preserveAspectRatio="xMidYMid meet">
<metadata>
Created by potrace 1.14, written by Peter Selinger 2001-2017
</metadata>
<g transform="translate(0.000000,512.000000) scale(0.100000,-0.100000)"
fill="#000000" stroke="none">
<path d="M1455 4944 c-38 -8 -113 -35 -165 -61 -80 -39 -108 -59 -180 -132
-117 -118 -177 -235 -201 -395 -10 -65 -15 -74 -61 -121 -142 -143 -248 -362
-277 -569 -8 -53 -11 -617 -11 -1792 l0 -1714 80 0 80 0 0 1714 c0 1878 -2
1804 59 1962 26 66 119 230 126 222 2 -2 10 -219 19 -483 9 -264 21 -509 27
-545 43 -268 262 -490 533 -539 282 -52 574 95 701 351 28 57 51 122 60 168 9
48 20 248 30 560 9 267 18 486 20 488 7 8 100 -156 126 -222 61 -158 59 -84
59 -1962 l0 -1714 80 0 80 0 0 1234 c0 1354 -1 1326 60 1485 26 68 117 227
125 219 2 -2 10 -219 19 -483 9 -264 21 -509 27 -545 34 -212 170 -390 371
-485 188 -89 381 -86 576 10 195 97 332 293 356 510 3 28 13 262 22 520 9 259
17 471 19 473 7 8 100 -156 126 -222 60 -155 59 -131 59 -1482 l0 -1234 80 0
81 0 -3 1283 -3 1282 -22 78 c-54 188 -142 350 -257 469 -50 53 -55 62 -65
125 -24 159 -84 276 -201 394 -72 73 -100 93 -180 132 -210 102 -411 102 -620
0 -207 -101 -356 -312 -384 -543 -6 -49 -12 -61 -53 -100 -25 -25 -65 -71 -88
-102 l-43 -57 -4 282 c-4 248 -8 292 -26 360 -50 184 -140 349 -256 469 -50
53 -55 62 -65 125 -24 159 -84 276 -201 394 -72 73 -100 93 -180 132 -151 74
-298 93 -455 61z m262 -159 c169 -40 298 -145 372 -305 52 -111 53 -138 31
-785 -19 -560 -27 -676 -52 -731 -14 -30 -13 -30 -83 2 -114 50 -215 68 -385
68 -170 0 -271 -18 -385 -68 -70 -32 -69 -32 -83 -2 -25 55 -33 171 -52 741
-18 527 -18 608 -6 666 63 293 357 482 643 414z m1980 -978 c176 -61 311 -215
349 -399 13 -62 12 -136 -6 -666 -19 -567 -27 -683 -52 -738 -14 -30 -13 -30
-83 2 -114 50 -215 68 -385 68 -170 0 -271 -18 -385 -68 -70 -32 -69 -32 -83
-2 -25 55 -33 171 -52 738 -18 530 -19 604 -6 666 43 207 195 363 406 417 81
21 208 13 297 -18z m-1958 -938 c75 -12 221 -58 221 -70 0 -16 -87 -81 -145
-109 -179 -84 -395 -57 -536 68 l-43 39 29 16 c109 56 321 81 474 56z m1920
-960 c75 -12 221 -58 221 -70 0 -16 -87 -81 -145 -109 -179 -84 -395 -57 -536
68 l-43 39 29 16 c109 56 321 81 474 56z"/>
<path d="M1280 1440 l0 -80 320 0 320 0 0 80 0 80 -320 0 -320 0 0 -80z"/>
<path d="M1120 1120 l0 -80 480 0 480 0 0 80 0 80 -480 0 -480 0 0 -80z"/>
<path d="M1280 800 l0 -80 320 0 320 0 0 80 0 80 -320 0 -320 0 0 -80z"/>
<path d="M3200 720 l0 -80 320 0 320 0 0 80 0 80 -320 0 -320 0 0 -80z"/>
<path d="M3040 400 l0 -80 480 0 480 0 0 80 0 80 -480 0 -480 0 0 -80z"/>
</g>
</svg>
